<?xml version="1.0" encoding="UTF-8"?>
<svg id="Capa_2" data-name="Capa 2" xmlns="http://www.w3.org/2000/svg" viewBox="0 0 272.76 105.63">
  <defs>
    <style>
      .cls-1 {
        fill: #fff;
      }

      .cls-2 {
        fill: #211915;
      }
    </style>
  </defs>
  <g id="Capa_3" data-name="Capa 3">
    <g>
      <g>
        <g>
          <path class="cls-2" d="M166.2,69.17h-.06c1.38-1.87,2.12-4.06,2.12-6.48,0-4.01-1.83-7.2-5.33-9.23-2.92-1.7-6.71-2.53-11.58-2.53h-10.26c-2.29,0-4.13,1.76-4.13,3.96v30.61c0,2.2,1.83,3.96,4.13,3.96h12.79c4.47,0,8.2-.99,11.12-2.91,3.33-2.2,5.05-5.49,5.05-9.5,0-2.97-1.32-5.66-3.84-7.86ZM146.71,59.94h4.64c3.9,0,5.62.71,6.31,1.1.63.39.86.71.86,1.59,0,1.04-.34,1.37-.75,1.59-.63.38-2.24,1.04-5.85,1.04h-5.22v-5.33ZM159.27,79.17c-1.2.82-2.98,1.21-5.39,1.21h-7.17v-6.04h7.4c2.35,0,4.13.38,5.16,1.15,1.09.77,1.09,1.32,1.09,1.59,0,.99-.29,1.59-1.09,2.09Z"/>
          <path class="cls-2" d="M193.27,50.49c-5.73,0-10.32,1.59-13.7,4.73-3.44,3.19-5.16,7.47-5.16,12.69v4.56c0,5.22,1.78,9.51,5.22,12.69,3.38,3.13,8.03,4.73,13.7,4.73s10.26-1.59,13.65-4.73c3.44-3.19,5.16-7.47,5.16-12.69v-4.56c0-5.22-1.72-9.51-5.22-12.69-3.38-3.13-7.97-4.73-13.65-4.73ZM202.45,72.47c0,2.75-.75,4.78-2.24,6.21-1.49,1.43-3.78,2.14-6.88,2.14s-5.45-.71-6.94-2.14c-1.49-1.48-2.24-3.52-2.24-6.21v-4.62c0-2.69.74-4.72,2.24-6.15,1.49-1.48,3.73-2.2,6.88-2.2s5.39.71,6.94,2.2c1.49,1.43,2.24,3.46,2.24,6.15v4.62Z"/>
          <path class="cls-2" d="M239.26,69.89l11.12-12.42c1.09-1.21,1.32-2.86.63-4.23-.63-1.43-2.12-2.31-3.73-2.31h-1.83c-1.2,0-2.35.5-3.1,1.37l-9.52,10.61-9.46-10.61c-.8-.88-1.95-1.37-3.15-1.37h-1.83c-1.61,0-3.04.88-3.73,2.31-.69,1.37-.46,3.08.63,4.23l11.18,12.42-11.7,13.02c-1.09,1.15-1.32,2.8-.63,4.23.63,1.43,2.12,2.31,3.73,2.31h1.78c1.2,0,2.35-.5,3.15-1.37l10.03-11.26,10.09,11.26c.74.88,1.89,1.37,3.1,1.37h1.83c1.61,0,3.04-.88,3.73-2.31.69-1.43.46-3.08-.63-4.23l-11.7-13.02Z"/>
          <path class="cls-2" d="M130.63,36.87c1.62-.58,2.7-1.22,3.39-2.02.33-.4.54-.92.54-1.47v-5.9c0-.86-.51-1.62-1.26-1.99-.75-.37-1.65-.24-2.31.31l-.75.64c-.48.43-.78,1.04-.78,1.68v3.76c-.18.09-.45.18-.75.31-.93.28-2.04.43-3.3.43-1.59,0-2.79-.43-3.69-1.28-.87-.89-1.26-1.93-1.26-3.36v-2.81c0-1.35.36-2.35,1.2-3.15.87-.83,2.01-1.25,3.51-1.25s2.7.27,3.39.82c.78.58,1.56.89,2.28.89,1.02,0,1.92-.64,2.22-1.62.27-.83.21-2.05-1.47-3.3-1.65-1.22-3.81-1.8-6.41-1.8-2.82,0-5.18.86-6.98,2.6-1.89,1.77-2.82,4.07-2.82,6.85v2.78c0,2.84.96,5.2,2.88,7,1.86,1.8,4.26,2.69,7.16,2.69,2.01,0,3.78-.28,5.21-.79Z"/>
          <path class="cls-2" d="M140.71,16.23h-.78c-1.2,0-2.16.98-2.16,2.2v17.03c0,1.22.96,2.2,2.16,2.2h11.27c1.17,0,2.16-.98,2.16-2.2v-.64c0-1.22-.99-2.2-2.16-2.2h-8.33v-14.19c0-1.22-.96-2.2-2.16-2.2Z"/>
          <path class="cls-2" d="M160.07,37.66c1.2,0,2.19-.98,2.19-2.2v-17.03c0-1.22-.99-2.2-2.19-2.2h-.75c-1.2,0-2.16.98-2.16,2.2v17.03c0,1.22.96,2.2,2.16,2.2h.75Z"/>
          <path class="cls-2" d="M175.66,37.66h.78c1.17,0,2.16-.98,2.16-2.2v-14.22h5.27c1.2,0,2.16-.98,2.16-2.2v-.61c0-1.22-.96-2.2-2.16-2.2h-15.64c-1.2,0-2.16.98-2.16,2.2v.61c0,1.22.96,2.2,2.16,2.2h5.27v14.22c0,1.22.96,2.2,2.16,2.2Z"/>
          <path class="cls-2" d="M195.54,22.22c.78-.83,1.86-1.25,3.27-1.25,1.5,0,2.64.31,3.42.86.78.58,1.53.86,2.25.86,1.05,0,1.98-.64,2.28-1.65.24-.82.18-2.08-1.56-3.3-1.65-1.19-3.81-1.77-6.38-1.77-2.82,0-5.15.89-6.92,2.69-1.74,1.8-2.64,4.16-2.64,7v2.54c0,2.84.9,5.17,2.67,6.97,1.74,1.8,4.08,2.72,6.89,2.72,2.58,0,4.71-.61,6.38-1.77.42-.31.75-.61.99-.89.87-1.04.69-2.02.57-2.42-.3-.98-1.2-1.62-2.25-1.62-.69,0-1.47.28-2.25.83-.78.55-1.95.83-3.45.83-1.41,0-2.49-.4-3.3-1.22-.78-.83-1.17-1.96-1.17-3.43v-2.57c0-1.47.39-2.57,1.2-3.39Z"/>
          <path class="cls-2" d="M212.99,16.23h-.75c-1.2,0-2.16.98-2.16,2.2v17.03c0,1.22.96,2.2,2.16,2.2h.75c1.2,0,2.19-.98,2.19-2.2v-5.93h8.72v5.93c0,1.22.96,2.2,2.16,2.2h.75c1.2,0,2.16-.98,2.16-2.2v-17.03c0-1.22-.96-2.2-2.16-2.2h-.75c-1.2,0-2.16.98-2.16,2.2v6.05h-8.72v-6.05c0-1.22-.99-2.2-2.19-2.2Z"/>
          <path class="cls-2" d="M248.09,21.24c1.2,0,2.16-.98,2.16-2.2v-.61c0-1.22-.96-2.2-2.16-2.2h-12.44c-1.2,0-2.16.98-2.16,2.2v17.03c0,1.22.96,2.2,2.16,2.2h12.44c1.2,0,2.16-.98,2.16-2.2v-.64c0-1.22-.96-2.2-2.16-2.2h-9.5v-3.52h8.06c1.2,0,2.16-.98,2.16-2.2v-.64c0-1.22-.96-2.2-2.16-2.2h-8.06v-2.81h9.5Z"/>
          <path class="cls-2" d="M269.55,18.83c-2.04-1.74-4.53-2.6-7.37-2.6h-5.66c-1.2,0-2.16.98-2.16,2.2v17.03c0,1.22.96,2.2,2.16,2.2h5.66c2.85,0,5.33-.89,7.37-2.63,2.1-1.8,3.21-4.25,3.21-7.06v-2.08c0-2.81-1.11-5.23-3.21-7.06ZM267.69,27.97c0,1.35-.48,2.35-1.5,3.24-1.08.95-2.4,1.41-4.02,1.41h-2.73v-11.38h2.73c1.62,0,2.94.49,4.02,1.44,1.02.89,1.5,1.9,1.5,3.18v2.11Z"/>
          <path class="cls-2" d="M267.22,42.06H123.17c-1.33,0-2.42,1.08-2.42,2.42s1.08,2.42,2.42,2.42h144.04c1.33,0,2.42-1.08,2.42-2.42s-1.08-2.42-2.42-2.42Z"/>
          <path class="cls-2" d="M193.39,65.48c-2.87,0-5.2,2.33-5.2,5.21s2.33,5.2,5.2,5.2,5.21-2.33,5.21-5.2-2.33-5.21-5.21-5.21Z"/>
        </g>
        <g>
          <g>
            <path class="cls-1" d="M136.96,85.49v-30.61c0-2.2,1.83-3.96,4.13-3.96h10.26c4.87,0,8.66.82,11.58,2.53,3.5,2.03,5.33,5.22,5.33,9.23,0,2.42-.75,4.62-2.12,6.48h.06c2.52,2.2,3.84,4.89,3.84,7.86,0,4.01-1.72,7.31-5.05,9.5-2.92,1.92-6.65,2.91-11.12,2.91h-12.79c-2.29,0-4.13-1.76-4.13-3.96ZM158.52,62.63c0-.88-.23-1.21-.86-1.59-.69-.38-2.41-1.1-6.31-1.1h-4.64v5.33h5.22c3.61,0,5.22-.66,5.85-1.04.4-.22.75-.55.75-1.59ZM154.11,74.34h-7.4v6.04h7.17c2.41,0,4.19-.38,5.39-1.21.8-.5,1.09-1.1,1.09-2.09,0-.27,0-.82-1.09-1.59-1.03-.77-2.81-1.15-5.16-1.15Z"/>
            <path class="cls-1" d="M193.27,50.49c5.68,0,10.26,1.59,13.65,4.73,3.5,3.19,5.22,7.47,5.22,12.69v4.56c0,5.22-1.72,9.51-5.16,12.69-3.38,3.13-7.97,4.73-13.65,4.73s-10.32-1.59-13.7-4.73c-3.44-3.19-5.22-7.47-5.22-12.69v-4.56c0-5.22,1.72-9.51,5.16-12.69,3.38-3.13,7.97-4.73,13.7-4.73ZM202.45,67.85c0-2.69-.75-4.72-2.24-6.15-1.55-1.48-3.78-2.2-6.94-2.2s-5.39.71-6.88,2.2c-1.49,1.43-2.24,3.46-2.24,6.15v4.62c0,2.69.74,4.73,2.24,6.21,1.49,1.43,3.78,2.14,6.94,2.14s5.39-.71,6.88-2.14c1.49-1.43,2.24-3.46,2.24-6.21v-4.62Z"/>
            <path class="cls-1" d="M250.96,82.91c1.09,1.15,1.32,2.8.63,4.23-.69,1.43-2.12,2.31-3.73,2.31h-1.83c-1.2,0-2.35-.5-3.1-1.37l-10.09-11.26-10.03,11.26c-.8.88-1.95,1.37-3.15,1.37h-1.78c-1.61,0-3.1-.88-3.73-2.31-.69-1.43-.46-3.08.63-4.23l11.7-13.02-11.18-12.42c-1.09-1.15-1.32-2.86-.63-4.23.69-1.43,2.12-2.31,3.73-2.31h1.83c1.2,0,2.35.5,3.15,1.37l9.46,10.61,9.52-10.61c.75-.88,1.89-1.37,3.1-1.37h1.83c1.61,0,3.1.88,3.73,2.31.69,1.37.46,3.02-.63,4.23l-11.12,12.42,11.7,13.02Z"/>
          </g>
          <g>
            <path class="cls-1" d="M115.38,27.97v-2.78c0-2.78.93-5.08,2.82-6.85,1.8-1.74,4.17-2.6,6.98-2.6,2.61,0,4.77.58,6.41,1.8,1.68,1.25,1.74,2.48,1.47,3.3-.3.98-1.2,1.62-2.22,1.62-.72,0-1.5-.31-2.28-.89-.69-.55-1.86-.82-3.39-.82s-2.64.43-3.51,1.25c-.84.79-1.2,1.8-1.2,3.15v2.81c0,1.44.39,2.48,1.26,3.36.9.86,2.1,1.28,3.69,1.28,1.26,0,2.37-.15,3.3-.43.3-.12.57-.21.75-.31v-3.76c0-.64.3-1.25.78-1.68l.75-.64c.66-.55,1.56-.67,2.31-.31.75.37,1.26,1.13,1.26,1.99v5.9c0,.55-.21,1.07-.54,1.47-.69.79-1.77,1.44-3.39,2.02-1.44.52-3.21.79-5.21.79-2.91,0-5.3-.89-7.16-2.69-1.92-1.8-2.88-4.16-2.88-7Z"/>
            <path class="cls-1" d="M142.87,18.43v14.19h8.33c1.17,0,2.16.98,2.16,2.2v.64c0,1.22-.99,2.2-2.16,2.2h-11.27c-1.2,0-2.16-.98-2.16-2.2v-17.03c0-1.22.96-2.2,2.16-2.2h.78c1.2,0,2.16.98,2.16,2.2Z"/>
            <path class="cls-1" d="M157.17,35.46v-17.03c0-1.22.96-2.2,2.16-2.2h.75c1.2,0,2.19.98,2.19,2.2v17.03c0,1.22-.99,2.2-2.19,2.2h-.75c-1.2,0-2.16-.98-2.16-2.2Z"/>
            <path class="cls-1" d="M168.23,16.23h15.64c1.2,0,2.16.98,2.16,2.2v.61c0,1.22-.96,2.2-2.16,2.2h-5.27v14.22c0,1.22-.99,2.2-2.16,2.2h-.78c-1.2,0-2.16-.98-2.16-2.2v-14.22h-5.27c-1.2,0-2.16-.98-2.16-2.2v-.61c0-1.22.96-2.2,2.16-2.2Z"/>
            <path class="cls-1" d="M191.91,35.16c-1.77-1.8-2.67-4.13-2.67-6.97v-2.54c0-2.84.9-5.2,2.64-7,1.77-1.8,4.11-2.69,6.92-2.69,2.58,0,4.74.58,6.38,1.77,1.74,1.22,1.8,2.48,1.56,3.3-.3,1.01-1.23,1.65-2.28,1.65-.72,0-1.47-.28-2.25-.86-.78-.55-1.92-.86-3.42-.86-1.41,0-2.49.43-3.27,1.25-.81.83-1.2,1.93-1.2,3.39v2.57c0,1.47.39,2.6,1.17,3.43.81.82,1.89,1.22,3.3,1.22,1.5,0,2.67-.28,3.45-.83.78-.55,1.56-.83,2.25-.83,1.05,0,1.95.64,2.25,1.62.12.4.3,1.38-.57,2.42-.24.28-.57.58-.99.89-1.68,1.16-3.81,1.77-6.38,1.77-2.82,0-5.15-.92-6.89-2.72Z"/>
            <path class="cls-1" d="M210.08,35.46v-17.03c0-1.22.96-2.2,2.16-2.2h.75c1.2,0,2.19.98,2.19,2.2v6.05h8.72v-6.05c0-1.22.96-2.2,2.16-2.2h.75c1.2,0,2.16.98,2.16,2.2v17.03c0,1.22-.96,2.2-2.16,2.2h-.75c-1.2,0-2.16-.98-2.16-2.2v-5.93h-8.72v5.93c0,1.22-.99,2.2-2.19,2.2h-.75c-1.2,0-2.16-.98-2.16-2.2Z"/>
            <path class="cls-1" d="M233.49,35.46v-17.03c0-1.22.96-2.2,2.16-2.2h12.44c1.2,0,2.16.98,2.16,2.2v.61c0,1.22-.96,2.2-2.16,2.2h-9.5v2.81h8.06c1.2,0,2.16.98,2.16,2.2v.64c0,1.22-.96,2.2-2.16,2.2h-8.06v3.52h9.5c1.2,0,2.16.98,2.16,2.2v.64c0,1.22-.96,2.2-2.16,2.2h-12.44c-1.2,0-2.16-.98-2.16-2.2Z"/>
            <path class="cls-1" d="M254.36,35.46v-17.03c0-1.22.96-2.2,2.16-2.2h5.66c2.85,0,5.33.86,7.37,2.6,2.1,1.83,3.21,4.25,3.21,7.06v2.08c0,2.81-1.11,5.26-3.21,7.06-2.04,1.74-4.53,2.63-7.37,2.63h-5.66c-1.2,0-2.16-.98-2.16-2.2ZM267.69,25.86c0-1.28-.48-2.29-1.5-3.18-1.08-.95-2.4-1.44-4.02-1.44h-2.73v11.38h2.73c1.62,0,2.94-.46,4.02-1.41,1.02-.89,1.5-1.9,1.5-3.24v-2.11Z"/>
          </g>
          <path class="cls-1" d="M267.22,46.9H123.17c-1.33,0-2.42-1.08-2.42-2.42s1.08-2.42,2.42-2.42h144.04c1.33,0,2.42,1.08,2.42,2.42s-1.08,2.42-2.42,2.42Z"/>
          <path class="cls-1" d="M198.59,70.68c0,2.87-2.33,5.2-5.21,5.2s-5.2-2.33-5.2-5.2,2.33-5.21,5.2-5.21,5.21,2.33,5.21,5.21Z"/>
        </g>
      </g>
      <g>
        <path class="cls-1" d="M47.76,23.64c-6.2,0-11.24,5.04-11.24,11.24s5.04,11.24,11.24,11.24,11.24-5.04,11.24-11.24-5.04-11.24-11.24-11.24ZM47.76,40.75c-3.25,0-5.87-2.63-5.87-5.87s2.63-5.87,5.87-5.87c1.09,0,2.1.3,2.98.82-.26.42-.41.9-.41,1.42,0,1.51,1.22,2.73,2.73,2.73.17,0,.33-.02.49-.05.05.31.08.63.08.95,0,3.24-2.63,5.87-5.87,5.87Z"/>
        <path class="cls-1" d="M47.76,9.45L12.01,36.37l35.75,18.72,35.75-18.72L47.76,9.45ZM47.76,49.98c-8.33,0-15.1-6.77-15.1-15.1s6.77-15.1,15.1-15.1,15.1,6.77,15.1,15.1-6.77,15.1-15.1,15.1Z"/>
        <path class="cls-1" d="M22.78,83.46l21.76,11.08v-33.88L10.47,42.83l12.31,40.64ZM23.37,68.14c-.27-.66.05-1.41.71-1.67l4.77-1.92c.66-.27,1.41.05,1.67.71.27.66-.05,1.41-.71,1.67l-4.77,1.92c-.16.06-.32.09-.48.09-.51,0-.99-.31-1.19-.81ZM42.55,85.8c-.22.45-.68.72-1.15.72-.19,0-.39-.04-.57-.13l-9.35-4.63c-.64-.32-.9-1.09-.58-1.72.32-.64,1.09-.9,1.72-.58l9.35,4.63c.64.32.9,1.09.58,1.72ZM21.27,54.24l18.16,8.98s0,0,0,0c.04.02.07.05.11.07.04.02.08.04.11.07,0,0,0,0,0,0,0,0,.01.01.02.02.06.05.12.1.17.16.03.03.04.06.07.09.03.04.05.07.08.11.02.04.04.08.05.12.02.03.03.07.05.1.01.04.02.08.03.12,0,.04.02.08.03.12,0,.04,0,.08,0,.12,0,.04,0,.09,0,.13,0,.05-.01.09-.02.14,0,.04,0,.07-.02.11-.02.08-.05.15-.08.22,0,0,0,.01,0,.02,0,0,0,0,0,0-.04.08-.09.15-.14.22l-6.61,8.44,6.65,3.01c.65.29.94,1.06.64,1.7-.22.48-.68.76-1.17.76-.18,0-.36-.04-.53-.11l-7.23-3.27-4.47,5.7c-.25.32-.63.49-1.01.49-.28,0-.56-.09-.79-.27-.56-.44-.66-1.25-.22-1.81l11.74-14.97-16.74-8.28c-.64-.32-.9-1.09-.58-1.72.32-.64,1.09-.9,1.72-.58Z"/>
        <path class="cls-1" d="M92.8,32.19L51.86,1.37c-1.22-.92-2.66-1.37-4.11-1.37s-2.89.46-4.11,1.37L2.72,32.19c-2.29,1.72-3.26,4.69-2.43,7.43l14.45,47.67c.54,1.78,1.78,3.26,3.44,4.1l26.49,13.48c.97.5,2.03.74,3.1.74s2.12-.25,3.1-.74l26.49-13.48c1.66-.84,2.9-2.33,3.44-4.1l14.45-47.67c.83-2.74-.14-5.71-2.43-7.43ZM92.51,40.38l-13.62,44.95c-.51,1.68-1.68,3.07-3.24,3.87l-24.97,12.71c-.92.47-1.92.7-2.92.7s-2-.23-2.92-.7l-24.97-12.71c-1.56-.8-2.73-2.19-3.24-3.87L3,40.38c-.78-2.58.13-5.38,2.29-7.01L43.89,4.31c1.15-.86,2.51-1.29,3.87-1.29s2.73.43,3.87,1.29l38.6,29.06c2.16,1.62,3.07,4.42,2.29,7.01Z"/>
        <path class="cls-1" d="M50.98,94.54l21.76-11.08,12.31-40.64-34.07,17.84v33.88ZM58.48,85.96c-.25.36-.65.56-1.06.56-.25,0-.51-.07-.73-.23-.58-.4-.73-1.21-.33-1.79l4.18-6.05,3.09-4.47.66-.95,1.88-2.73.16-.24c.31-.46.87-.64,1.37-.51,0,0,0,0,0,0,.14.04.28.09.41.18.58.4.73,1.21.33,1.79l-2.49,3.6-4.95,7.18-2.53,3.67ZM72.47,76.17l-2.32,3.16-2.18,2.97s-.02.01-.02.02c-.25.33-.63.5-1.02.5-.26,0-.53-.08-.76-.25-.57-.42-.7-1.23-.28-1.8l1.91-2.61,2.59-3.53c.3-.41.8-.59,1.27-.5.18.03.36.1.53.22.57.42.7,1.23.28,1.8ZM55.33,71.8l.14-.22,4.88-7.73,1.13-1.79.3-.48,3.1-4.91s0,0,.01-.01c.03-.04.06-.08.09-.12.02-.03.04-.06.07-.08.03-.03.06-.05.08-.07.04-.03.07-.07.12-.09,0,0,0,0,.01-.01.03-.02.05-.03.08-.04.04-.02.08-.05.13-.07.04-.02.08-.03.12-.04.04-.01.08-.03.12-.03.04,0,.08-.01.12-.02.04,0,.08,0,.12-.01.04,0,.08,0,.12,0,.04,0,.09,0,.13.01.04,0,.08.02.12.03.04.01.08.02.12.04.04.02.08.04.13.06.03.01.06.02.08.04,0,0,0,0,.01.01.04.03.08.06.11.09.03.02.06.05.09.07.02.02.04.05.07.08.03.04.07.08.1.12,0,0,0,0,0,.01l1.36,2.08,1.2,1.83,1.37-1.41,4.52-4.65c.5-.51,1.31-.52,1.82-.03.51.5.52,1.31.03,1.82l-.08.08-4.73,4.86-1.42,1.46s-.04.03-.06.05l3.67,5.6c.39.59.22,1.39-.37,1.78-.22.14-.46.21-.7.21-.28,0-.56-.1-.78-.28-.11-.09-.21-.18-.29-.31l-1.34-2.04-1.99-3.04-1.82-2.78-1.42-2.17-2.45,3.89-1.44,2.28-4.6,7.28c-.24.39-.66.6-1.09.6-.23,0-.47-.06-.69-.2-.6-.38-.78-1.17-.4-1.78Z"/>
      </g>
    </g>
  </g>
</svg>