<svg width="168" height="47" viewBox="0 0 168 47" fill="none" xmlns="http://www.w3.org/2000/svg">
<g clip-path="url(#clip0_230_2859)">
<path d="M97.1209 30.7771H97.0945C97.7017 29.9451 98.0272 28.9706 98.0272 27.8939C98.0272 26.1096 97.2221 24.6902 95.6823 23.787C94.3977 23.0306 92.7303 22.6613 90.5877 22.6613H86.0739C85.0664 22.6613 84.2569 23.4444 84.2569 24.4233V38.0432C84.2569 39.0221 85.062 39.8052 86.0739 39.8052H91.7008C93.6674 39.8052 95.3084 39.3647 96.593 38.5104C98.058 37.5315 98.8147 36.0676 98.8147 34.2833C98.8147 32.9618 98.234 31.7649 97.1253 30.786L97.1209 30.7771ZM88.5464 26.6703H90.5877C92.3035 26.6703 93.0602 26.9862 93.3638 27.1597C93.641 27.3332 93.7421 27.4756 93.7421 27.8672C93.7421 28.3299 93.5926 28.4768 93.4122 28.5746C93.135 28.7437 92.4267 29.0374 90.8385 29.0374H88.542V26.6658L88.5464 26.6703ZM94.0721 35.2266C93.5442 35.5915 92.7611 35.765 91.7008 35.765H88.5464V33.0775H91.802C92.8359 33.0775 93.619 33.2466 94.0721 33.5892C94.5517 33.9318 94.5517 34.1766 94.5517 34.2967C94.5517 34.7372 94.4241 35.0042 94.0721 35.2266Z" fill="white"/>
<path d="M109.03 22.4655C106.509 22.4655 104.49 23.173 103.003 24.5701C101.49 25.9895 100.733 27.8939 100.733 30.2165V32.2455C100.733 34.5681 101.516 36.477 103.029 37.8919C104.516 39.2846 106.562 39.9965 109.057 39.9965C111.551 39.9965 113.571 39.289 115.062 37.8919C116.575 36.4725 117.332 34.5681 117.332 32.2455V30.2165C117.332 27.8939 116.575 25.985 115.036 24.5701C113.549 23.1774 111.529 22.4655 109.03 22.4655ZM113.069 32.2455C113.069 33.4691 112.739 34.3723 112.084 35.0086C111.428 35.6449 110.421 35.9608 109.057 35.9608C107.693 35.9608 106.659 35.6449 106.003 35.0086C105.348 34.3501 105.018 33.4424 105.018 32.2455V30.1898C105.018 28.9929 105.344 28.0897 106.003 27.4534C106.659 26.7949 107.644 26.4745 109.03 26.4745C110.416 26.4745 111.402 26.7904 112.084 27.4534C112.739 28.0897 113.069 28.9929 113.069 30.1898V32.2455Z" fill="white"/>
<path d="M129.263 31.0975L134.156 25.5712C134.635 25.0329 134.736 24.2987 134.433 23.6891C134.156 23.0528 133.5 22.6613 132.792 22.6613H131.987C131.459 22.6613 130.953 22.8837 130.623 23.2709L126.435 27.9918L122.273 23.2709C121.921 22.8793 121.415 22.6613 120.887 22.6613H120.082C119.373 22.6613 118.744 23.0528 118.441 23.6891C118.137 24.2987 118.238 25.0595 118.718 25.5712L123.637 31.0975L118.489 36.8908C118.01 37.4024 117.908 38.1366 118.212 38.7729C118.489 39.4092 119.145 39.8007 119.853 39.8007H120.636C121.164 39.8007 121.67 39.5782 122.022 39.1911L126.435 34.181L130.874 39.1911C131.199 39.5827 131.705 39.8007 132.238 39.8007H133.043C133.751 39.8007 134.38 39.4092 134.684 38.7729C134.987 38.1366 134.886 37.4024 134.406 36.8908L129.259 31.0975H129.263Z" fill="white"/>
<path d="M81.472 16.4055C82.1847 16.1474 82.6599 15.8626 82.9634 15.5067C83.1086 15.3287 83.201 15.0973 83.201 14.8526V12.2274C83.201 11.8447 82.9766 11.5066 82.6467 11.3419C82.3167 11.1773 81.9208 11.2351 81.6304 11.4799L81.3004 11.7646C81.0893 11.956 80.9573 12.2274 80.9573 12.5121V14.1852C80.8781 14.2252 80.7593 14.2652 80.6273 14.3231C80.2182 14.4477 79.7298 14.5144 79.1755 14.5144C78.476 14.5144 77.948 14.3231 77.5521 13.9449C77.1693 13.5489 76.9978 13.0861 76.9978 12.4499V11.1995C76.9978 10.5989 77.1561 10.1539 77.5257 9.79795C77.9085 9.42865 78.41 9.24177 79.0699 9.24177C79.7298 9.24177 80.2578 9.3619 80.5613 9.60663C80.9045 9.8647 81.2476 10.0026 81.5644 10.0026C82.0132 10.0026 82.4091 9.71786 82.5411 9.28181C82.6599 8.91251 82.6335 8.36967 81.8944 7.81348C81.1685 7.27064 80.2182 7.01257 79.0743 7.01257C77.8337 7.01257 76.7954 7.39523 76.0035 8.16944C75.172 8.957 74.7628 9.98038 74.7628 11.2173V12.4543C74.7628 13.718 75.1852 14.768 76.0299 15.5689C76.8482 16.3699 77.904 16.7659 79.1799 16.7659C80.0642 16.7659 80.8429 16.6413 81.472 16.4144V16.4055Z" fill="white"/>
<path d="M85.9067 7.22153H85.5635C85.0356 7.22153 84.6132 7.65758 84.6132 8.20042V15.7779C84.6132 16.3207 85.0356 16.7568 85.5635 16.7568H90.5217C91.0365 16.7568 91.472 16.3207 91.472 15.7779V15.4931C91.472 14.9503 91.0365 14.5142 90.5217 14.5142H86.857V8.20042C86.857 7.65758 86.4346 7.22153 85.9067 7.22153Z" fill="white"/>
<path d="M94.4241 16.7568C94.952 16.7568 95.3876 16.3207 95.3876 15.7779V8.20042C95.3876 7.65758 94.952 7.22153 94.4241 7.22153H94.0941C93.5662 7.22153 93.1438 7.65758 93.1438 8.20042V15.7779C93.1438 16.3207 93.5662 16.7568 94.0941 16.7568H94.4241Z" fill="white"/>
<path d="M101.283 16.7568H101.626C102.141 16.7568 102.576 16.3207 102.576 15.7779V9.45072H104.895C105.423 9.45072 105.845 9.01467 105.845 8.47184V8.20042C105.845 7.65758 105.423 7.22153 104.895 7.22153H98.014C97.4861 7.22153 97.0638 7.65758 97.0638 8.20042V8.47184C97.0638 9.01467 97.4861 9.45072 98.014 9.45072H100.333V15.7779C100.333 16.3207 100.755 16.7568 101.283 16.7568Z" fill="white"/>
<path d="M110.029 9.88677C110.372 9.51747 110.847 9.33059 111.468 9.33059C112.128 9.33059 112.629 9.46852 112.972 9.71324C113.315 9.97132 113.645 10.0959 113.962 10.0959C114.424 10.0959 114.833 9.81113 114.965 9.36174C115.071 8.99688 115.044 8.43624 114.279 7.8934C113.553 7.36391 112.603 7.10584 111.472 7.10584C110.231 7.10584 109.206 7.50185 108.428 8.30276C107.662 9.10366 107.266 10.1537 107.266 11.4174V12.5476C107.266 13.8112 107.662 14.848 108.441 15.6489C109.206 16.4498 110.236 16.8591 111.472 16.8591C112.607 16.8591 113.544 16.5877 114.279 16.0716C114.464 15.9336 114.609 15.8002 114.714 15.6756C115.097 15.2128 115.018 14.7768 114.965 14.5988C114.833 14.1627 114.437 13.878 113.975 13.878C113.672 13.878 113.329 14.0026 112.985 14.2473C112.642 14.492 112.128 14.6166 111.468 14.6166C110.847 14.6166 110.372 14.4386 110.016 14.0737C109.673 13.7044 109.501 13.2016 109.501 12.5476V11.4041C109.501 10.75 109.673 10.2605 110.029 9.89567V9.88677Z" fill="white"/>
<path d="M117.706 7.22153H117.376C116.848 7.22153 116.426 7.65758 116.426 8.20042V15.7779C116.426 16.3207 116.848 16.7568 117.376 16.7568H117.706C118.234 16.7568 118.67 16.3207 118.67 15.7779V13.1394H122.506V15.7779C122.506 16.3207 122.928 16.7568 123.456 16.7568H123.786C124.314 16.7568 124.736 16.3207 124.736 15.7779V8.20042C124.736 7.65758 124.314 7.22153 123.786 7.22153H123.456C122.928 7.22153 122.506 7.65758 122.506 8.20042V10.8924H118.67V8.20042C118.67 7.65758 118.234 7.22153 117.706 7.22153Z" fill="white"/>
<path d="M133.148 9.45072C133.676 9.45072 134.099 9.01467 134.099 8.47184V8.20042C134.099 7.65758 133.676 7.22153 133.148 7.22153H127.675C127.147 7.22153 126.725 7.65758 126.725 8.20042V15.7779C126.725 16.3207 127.147 16.7568 127.675 16.7568H133.148C133.676 16.7568 134.099 16.3207 134.099 15.7779V15.4931C134.099 14.9503 133.676 14.5142 133.148 14.5142H128.969V12.948H132.515C133.043 12.948 133.465 12.512 133.465 11.9691V11.6844C133.465 11.1415 133.043 10.7055 132.515 10.7055H128.969V9.45517H133.148V9.45072Z" fill="white"/>
<path d="M142.589 8.3784C141.692 7.60418 140.597 7.22153 139.347 7.22153H136.857C136.329 7.22153 135.907 7.65758 135.907 8.20042V15.7779C135.907 16.3207 136.329 16.7568 136.857 16.7568H139.347C140.601 16.7568 141.692 16.3608 142.589 15.5866C143.513 14.7857 144.002 13.6955 144.002 12.4452V11.5197C144.002 10.2694 143.513 9.19265 142.589 8.3784ZM141.771 12.4452C141.771 13.0459 141.56 13.4909 141.111 13.8869C140.636 14.3096 140.055 14.5142 139.343 14.5142H138.142V9.45072H139.343C140.055 9.45072 140.636 9.66875 141.111 10.0915C141.56 10.4875 141.771 10.9369 141.771 11.5064V12.4452Z" fill="white"/>
<path d="M141.564 18.7146H78.19C77.6049 18.7146 77.1253 19.1951 77.1253 19.7913C77.1253 20.3876 77.6005 20.8681 78.19 20.8681H141.56C142.145 20.8681 142.625 20.3876 142.625 19.7913C142.625 19.1951 142.15 18.7146 141.56 18.7146H141.564Z" fill="white"/>
<path d="M109.083 29.1353C107.82 29.1353 106.795 30.172 106.795 31.4535C106.795 32.7349 107.82 33.7672 109.083 33.7672C110.346 33.7672 111.375 32.7305 111.375 31.4535C111.375 30.1765 110.35 29.1353 109.083 29.1353Z" fill="white"/>
<path d="M84.2569 38.0387V24.4188C84.2569 23.4399 85.062 22.6568 86.0739 22.6568H90.5877C92.7303 22.6568 94.3977 23.0217 95.6823 23.7825C97.2221 24.6858 98.0272 26.1052 98.0272 27.8894C98.0272 28.9662 97.6973 29.9451 97.0945 30.7727H97.1209C98.2296 31.7516 98.8103 32.9485 98.8103 34.27C98.8103 36.0542 98.0536 37.5226 96.5886 38.497C95.304 39.3513 93.663 39.7918 91.6964 39.7918H86.0695C85.062 39.7918 84.2525 39.0087 84.2525 38.0298L84.2569 38.0387ZM93.7421 27.8672C93.7421 27.4756 93.641 27.3288 93.3638 27.1597C93.0602 26.9906 92.3035 26.6703 90.5877 26.6703H88.5464L88.5464 29.0418H90.8429C92.4311 29.0418 93.1394 28.7482 93.4166 28.5791C93.5926 28.4812 93.7465 28.3344 93.7465 27.8716L93.7421 27.8672ZM91.802 33.0775H88.5464V35.765H91.7008C92.7611 35.765 93.5442 35.5959 94.0721 35.2266C94.4241 35.0042 94.5517 34.7372 94.5517 34.2967C94.5517 34.1766 94.5517 33.9318 94.0721 33.5892C93.619 33.2466 92.8359 33.0775 91.802 33.0775Z" fill="white"/>
<path d="M109.03 22.4655C111.529 22.4655 113.544 23.173 115.036 24.5701C116.575 25.9895 117.332 27.8939 117.332 30.2165V32.2455C117.332 34.5681 116.575 36.477 115.062 37.8919C113.575 39.2846 111.556 39.9965 109.057 39.9965C106.558 39.9965 104.516 39.289 103.029 37.8919C101.516 36.4725 100.733 34.5681 100.733 32.2455V30.2165C100.733 27.8939 101.49 25.985 103.003 24.5701C104.49 23.1774 106.509 22.4655 109.03 22.4655ZM113.069 30.1898C113.069 28.9929 112.739 28.0897 112.084 27.4534C111.402 26.7949 110.421 26.4745 109.03 26.4745C107.64 26.4745 106.659 26.7904 106.003 27.4534C105.348 28.0897 105.018 28.9929 105.018 30.1898V32.2455C105.018 33.4424 105.344 34.3501 106.003 35.0086C106.659 35.6449 107.666 35.9608 109.057 35.9608C110.447 35.9608 111.428 35.6449 112.084 35.0086C112.739 34.3723 113.069 33.4691 113.069 32.2455V30.1898Z" fill="white"/>
<path d="M134.411 36.8908C134.89 37.4024 134.992 38.1366 134.688 38.7729C134.384 39.4092 133.755 39.8007 133.047 39.8007H132.242C131.714 39.8007 131.208 39.5782 130.878 39.1911L126.439 34.181L122.026 39.1911C121.674 39.5827 121.168 39.8007 120.641 39.8007H119.857C119.149 39.8007 118.494 39.4092 118.216 38.7729C117.913 38.1366 118.014 37.4024 118.494 36.8908L123.641 31.0975L118.722 25.5712C118.243 25.0595 118.142 24.2987 118.445 23.6891C118.749 23.0528 119.378 22.6613 120.086 22.6613H120.891C121.419 22.6613 121.925 22.8837 122.277 23.2709L126.439 27.9918L130.627 23.2709C130.957 22.8793 131.459 22.6613 131.991 22.6613H132.796C133.505 22.6613 134.16 23.0528 134.437 23.6891C134.741 24.2987 134.64 25.0329 134.16 25.5712L129.268 31.0975L134.415 36.8908H134.411Z" fill="white"/>
<path d="M74.7628 12.4452V11.2083C74.7628 9.97132 75.172 8.94793 76.0035 8.16037C76.7954 7.38616 77.8381 7.0035 79.0743 7.0035C80.2226 7.0035 81.1729 7.26157 81.8944 7.80441C82.6335 8.3606 82.6599 8.90789 82.5411 9.27275C82.4091 9.7088 82.0132 9.99356 81.5644 9.99356C81.2476 9.99356 80.9045 9.85563 80.5613 9.59756C80.2578 9.35284 79.743 9.2327 79.0699 9.2327C78.3968 9.2327 77.9085 9.42403 77.5257 9.78889C77.1561 10.1404 76.9978 10.5898 76.9978 11.1905V12.4408C76.9978 13.0815 77.1693 13.5443 77.5521 13.9358C77.948 14.3185 78.476 14.5053 79.1755 14.5053C79.7298 14.5053 80.2182 14.4386 80.6273 14.314C80.7593 14.2606 80.8781 14.2206 80.9573 14.1761V12.5031C80.9573 12.2183 81.0893 11.9469 81.3004 11.7556L81.6304 11.4708C81.9208 11.2261 82.3167 11.1727 82.6467 11.3329C82.9766 11.4975 83.201 11.8357 83.201 12.2183V14.8435C83.201 15.0882 83.1086 15.3196 82.9634 15.4976C82.6599 15.8491 82.1847 16.1383 81.472 16.3964C80.8385 16.6278 80.0598 16.7479 79.1799 16.7479C77.8996 16.7479 76.8482 16.3519 76.0299 15.551C75.1852 14.7501 74.7628 13.7 74.7628 12.4363V12.4452Z" fill="white"/>
<path d="M86.857 8.20042V14.5142H90.5217C91.0365 14.5142 91.472 14.9503 91.472 15.4931V15.7779C91.472 16.3207 91.0365 16.7568 90.5217 16.7568H85.5635C85.0356 16.7568 84.6132 16.3207 84.6132 15.7779V8.20042C84.6132 7.65758 85.0356 7.22153 85.5635 7.22153H85.9067C86.4346 7.22153 86.857 7.65758 86.857 8.20042Z" fill="white"/>
<path d="M93.1482 15.7779V8.20042C93.1482 7.65758 93.5706 7.22153 94.0985 7.22153H94.4285C94.9564 7.22153 95.392 7.65758 95.392 8.20042V15.7779C95.392 16.3207 94.9564 16.7568 94.4285 16.7568H94.0985C93.5706 16.7568 93.1482 16.3207 93.1482 15.7779Z" fill="white"/>
<path d="M98.014 7.22153H104.895C105.423 7.22153 105.845 7.65758 105.845 8.20042V8.47184C105.845 9.01467 105.423 9.45072 104.895 9.45072H102.576V15.7779C102.576 16.3207 102.141 16.7568 101.626 16.7568H101.283C100.755 16.7568 100.333 16.3207 100.333 15.7779V9.45072H98.014C97.4861 9.45072 97.0638 9.01467 97.0638 8.47184V8.20042C97.0638 7.65758 97.4861 7.22153 98.014 7.22153Z" fill="white"/>
<path d="M108.432 15.6444C107.653 14.8435 107.257 13.8068 107.257 12.5431V11.413C107.257 10.1493 107.653 9.09921 108.419 8.29831C109.197 7.4974 110.227 7.10139 111.463 7.10139C112.598 7.10139 113.549 7.35946 114.27 7.88895C115.036 8.43179 115.062 8.99243 114.956 9.35729C114.824 9.80668 114.415 10.0915 113.953 10.0915C113.637 10.0915 113.307 9.96687 112.963 9.70879C112.62 9.46407 112.119 9.32614 111.459 9.32614C110.838 9.32614 110.363 9.51747 110.02 9.88233C109.664 10.2516 109.492 10.7411 109.492 11.3907V12.5342C109.492 13.1883 109.664 13.6911 110.007 14.0604C110.363 14.4253 110.838 14.6032 111.459 14.6032C112.119 14.6032 112.633 14.4787 112.977 14.2339C113.32 13.9892 113.663 13.8646 113.967 13.8646C114.428 13.8646 114.824 14.1494 114.956 14.5854C115.009 14.7634 115.088 15.1995 114.706 15.6622C114.6 15.7868 114.455 15.9203 114.27 16.0582C113.531 16.5744 112.594 16.8458 111.463 16.8458C110.223 16.8458 109.197 16.4364 108.432 15.6355V15.6444Z" fill="white"/>
<path d="M116.426 15.7779V8.20042C116.426 7.65758 116.848 7.22153 117.376 7.22153H117.706C118.234 7.22153 118.67 7.65758 118.67 8.20042V10.8924H122.506V8.20042C122.506 7.65758 122.928 7.22153 123.456 7.22153H123.786C124.314 7.22153 124.736 7.65758 124.736 8.20042V15.7779C124.736 16.3207 124.314 16.7568 123.786 16.7568H123.456C122.928 16.7568 122.506 16.3207 122.506 15.7779V13.1394H118.67V15.7779C118.67 16.3207 118.234 16.7568 117.706 16.7568H117.376C116.848 16.7568 116.426 16.3207 116.426 15.7779Z" fill="white"/>
<path d="M126.725 15.7779V8.20042C126.725 7.65758 127.147 7.22153 127.675 7.22153H133.148C133.676 7.22153 134.099 7.65758 134.099 8.20042V8.47184C134.099 9.01467 133.676 9.45072 133.148 9.45072H128.969V10.701H132.515C133.043 10.701 133.465 11.1371 133.465 11.6799V11.9647C133.465 12.5075 133.043 12.9436 132.515 12.9436H128.969V14.5098H133.148C133.676 14.5098 134.099 14.9459 134.099 15.4887V15.7735C134.099 16.3163 133.676 16.7523 133.148 16.7523H127.675C127.147 16.7523 126.725 16.3163 126.725 15.7735V15.7779Z" fill="white"/>
<path d="M135.907 15.7779V8.20042C135.907 7.65758 136.329 7.22153 136.857 7.22153H139.347C140.601 7.22153 141.692 7.60418 142.589 8.3784C143.513 9.19265 144.002 10.2694 144.002 11.5197V12.4452C144.002 13.6955 143.513 14.7857 142.589 15.5866C141.692 16.3608 140.597 16.7568 139.347 16.7568H136.857C136.329 16.7568 135.907 16.3207 135.907 15.7779ZM141.771 11.5064C141.771 10.9369 141.56 10.4875 141.111 10.0915C140.636 9.66875 140.055 9.45072 139.343 9.45072H138.142V14.5142H139.343C140.055 14.5142 140.636 14.3096 141.111 13.8869C141.56 13.4909 141.771 13.0415 141.771 12.4452V11.5064Z" fill="white"/>
<path d="M141.564 20.8681H78.19C77.6049 20.8681 77.1253 20.3876 77.1253 19.7913C77.1253 19.1951 77.6005 18.7146 78.19 18.7146H141.56C142.145 18.7146 142.625 19.1951 142.625 19.7913C142.625 20.3876 142.15 20.8681 141.56 20.8681H141.564Z" fill="white"/>
<path d="M111.371 31.449C111.371 32.726 110.346 33.7628 109.079 33.7628C107.812 33.7628 106.791 32.726 106.791 31.449C106.791 30.172 107.816 29.1308 109.079 29.1308C110.341 29.1308 111.371 30.1676 111.371 31.449Z" fill="white"/>
<path d="M45.0136 10.5186C42.2859 10.5186 40.0686 12.7611 40.0686 15.5198C40.0686 18.2785 42.2859 20.5211 45.0136 20.5211C47.7413 20.5211 49.9586 18.2785 49.9586 15.5198C49.9586 12.7611 47.7413 10.5186 45.0136 10.5186ZM45.0136 18.1317C43.5838 18.1317 42.4311 16.9615 42.4311 15.5198C42.4311 14.0782 43.5882 12.908 45.0136 12.908C45.4931 12.908 45.9375 13.0415 46.3246 13.2728C46.2103 13.4597 46.1443 13.6733 46.1443 13.9047C46.1443 14.5765 46.681 15.1194 47.3453 15.1194C47.4201 15.1194 47.4905 15.1105 47.5609 15.0971C47.5829 15.2351 47.5961 15.3775 47.5961 15.5198C47.5961 16.9615 46.439 18.1317 45.0136 18.1317Z" fill="white"/>
<path d="M45.0136 4.20477L29.2855 16.1828L45.0136 24.5123L60.7417 16.1828L45.0136 4.20477ZM45.0136 22.2386C41.3488 22.2386 38.3704 19.2263 38.3704 15.5198C38.3704 11.8134 41.3488 8.8011 45.0136 8.8011C48.6784 8.8011 51.6568 11.8134 51.6568 15.5198C51.6568 19.2263 48.6784 22.2386 45.0136 22.2386Z" fill="white"/>
<path d="M34.0237 37.1355L43.597 42.0655V26.9906L28.608 19.0572L34.0237 37.1399V37.1355ZM34.2833 30.3188C34.1645 30.0252 34.3053 29.6915 34.5956 29.5758L36.6942 28.7215C36.9846 28.6013 37.3145 28.7437 37.4289 29.0374C37.5477 29.3311 37.4069 29.6648 37.1165 29.7805L35.018 30.6348C34.9476 30.6615 34.8772 30.6748 34.8068 30.6748C34.5824 30.6748 34.3713 30.5369 34.2833 30.3144V30.3188ZM42.7215 38.1767C42.6247 38.3769 42.4223 38.497 42.2155 38.497C42.1319 38.497 42.044 38.4792 41.9648 38.4392L37.8513 36.3791C37.5697 36.2367 37.4553 35.8941 37.5961 35.6137C37.7369 35.329 38.0756 35.2133 38.3528 35.3557L42.4663 37.4158C42.7479 37.5582 42.8623 37.9008 42.7215 38.1811V38.1767ZM33.3594 24.1341L41.3488 28.1297C41.3664 28.1386 41.3796 28.1519 41.3972 28.1608C41.4148 28.1697 41.4324 28.1786 41.4456 28.192C41.4456 28.192 41.45 28.1964 41.4544 28.2009C41.4808 28.2231 41.5072 28.2454 41.5292 28.2721C41.5424 28.2854 41.5468 28.2988 41.56 28.3121C41.5732 28.3299 41.582 28.3433 41.5952 28.3611C41.604 28.3789 41.6128 28.3967 41.6172 28.4145C41.626 28.4278 41.6304 28.4456 41.6392 28.459C41.6436 28.4768 41.648 28.4946 41.6524 28.5124C41.6524 28.5302 41.6612 28.548 41.6656 28.5657C41.6656 28.5835 41.6656 28.6013 41.6656 28.6191C41.6656 28.6369 41.6656 28.6592 41.6656 28.677C41.6656 28.6992 41.6612 28.717 41.6568 28.7393C41.6568 28.7571 41.6568 28.7704 41.648 28.7882C41.6392 28.8238 41.626 28.855 41.6128 28.8861C41.6128 28.8861 41.6128 28.8906 41.6128 28.895C41.5952 28.9306 41.5732 28.9618 41.5512 28.9929L38.6432 32.7483L41.5688 34.0876C41.8548 34.2166 41.9824 34.5592 41.8504 34.844C41.7536 35.0576 41.5512 35.1821 41.3356 35.1821C41.2564 35.1821 41.1773 35.1643 41.1025 35.1332L37.9216 33.6782L35.9551 36.2144C35.8451 36.3568 35.6779 36.4325 35.5107 36.4325C35.3876 36.4325 35.2644 36.3924 35.1632 36.3123C34.9168 36.1165 34.8728 35.7561 35.0664 35.507L40.2314 28.8461L32.8667 25.1619C32.5851 25.0195 32.4707 24.6769 32.6115 24.3966C32.7523 24.1118 33.091 23.9961 33.3682 24.1385L33.3594 24.1341Z" fill="white"/>
<path d="M64.8285 14.3229L46.8171 0.609581C46.2803 0.200227 45.6468 0 45.0089 0C44.371 0 43.7374 0.204677 43.2007 0.609581L25.1981 14.3229C24.1906 15.0882 23.7638 16.4097 24.129 17.6289L30.4862 38.8396C30.7238 39.6316 31.2693 40.2902 31.9997 40.6639L43.6539 46.6618C44.0806 46.8843 44.5469 46.9911 45.0177 46.9911C45.4884 46.9911 45.9504 46.8799 46.3815 46.6618L58.0357 40.6639C58.766 40.2902 59.3116 39.6272 59.5491 38.8396L65.9064 17.6289C66.2715 16.4097 65.8448 15.0882 64.8373 14.3229H64.8285ZM64.7009 17.9671L58.7088 37.9675C58.4845 38.715 57.9697 39.3335 57.2834 39.6895L46.2979 45.3448C45.8932 45.5539 45.4532 45.6563 45.0133 45.6563C44.5733 45.6563 44.1334 45.5539 43.7286 45.3448L32.7432 39.6895C32.0568 39.3335 31.5421 38.715 31.3177 37.9675L25.3213 17.9671C24.9781 16.8191 25.3784 15.5732 26.3287 14.848L43.3107 1.91773C43.8166 1.53508 44.415 1.34375 45.0133 1.34375C45.6116 1.34375 46.2143 1.53508 46.7159 1.91773L63.6978 14.848C64.6481 15.5688 65.0485 16.8146 64.7053 17.9671H64.7009Z" fill="white"/>
<path d="M46.4302 42.0655L56.0035 37.1355L61.4192 19.0527L46.4302 26.9906V42.0655ZM49.7298 38.2478C49.6198 38.408 49.4439 38.497 49.2635 38.497C49.1535 38.497 49.0391 38.4659 48.9423 38.3947C48.6872 38.2167 48.6212 37.8563 48.7971 37.5982L51.9956 32.9174L52.2859 32.4947L53.113 31.2799L53.1834 31.1732C53.3198 30.9685 53.5662 30.8884 53.7861 30.9462C53.8477 30.964 53.9093 30.9863 53.9665 31.0263C54.2217 31.2043 54.2877 31.5647 54.1117 31.8228L53.0162 33.4246L49.7254 38.2523L49.7298 38.2478ZM55.8847 33.8918L53.9049 36.6193C53.9049 36.6193 53.8961 36.6238 53.8961 36.6282C53.7861 36.7751 53.619 36.8507 53.4474 36.8507C53.333 36.8507 53.2142 36.8151 53.113 36.7395C52.8623 36.5526 52.8051 36.1922 52.9898 35.9386L53.8301 34.7772L54.9696 33.2066C55.1016 33.0241 55.3216 32.944 55.5283 32.9841C55.6075 32.9974 55.6867 33.0286 55.7615 33.082C56.0123 33.2689 56.0695 33.6293 55.8847 33.8829V33.8918ZM48.344 31.9474L48.4056 31.8495L51.0497 27.6136L51.1817 27.4L52.5455 25.2153C52.5455 25.2153 52.5455 25.2153 52.5499 25.2108C52.5631 25.193 52.5763 25.1752 52.5895 25.1574C52.5983 25.1441 52.6071 25.1307 52.6203 25.1218C52.6335 25.1085 52.6467 25.0996 52.6555 25.0907C52.6731 25.0773 52.6863 25.0595 52.7083 25.0506C52.7083 25.0506 52.7083 25.0506 52.7127 25.0462C52.7259 25.0373 52.7347 25.0329 52.7479 25.0284C52.7655 25.0195 52.7831 25.0062 52.8051 24.9973C52.8227 24.9884 52.8403 24.9839 52.8579 24.9795C52.8755 24.975 52.893 24.9661 52.9106 24.9661C52.9282 24.9661 52.9458 24.9617 52.9634 24.9572C52.981 24.9572 52.9986 24.9572 53.0162 24.9528C53.0338 24.9528 53.0514 24.9528 53.069 24.9528C53.0866 24.9528 53.1086 24.9528 53.1262 24.9572C53.1438 24.9572 53.1614 24.9661 53.179 24.9706C53.1966 24.975 53.2142 24.9795 53.2318 24.9884C53.2494 24.9973 53.267 25.0062 53.289 25.0151C53.3022 25.0195 53.3154 25.024 53.3242 25.0329C53.3242 25.0329 53.3242 25.0329 53.3286 25.0373C53.3462 25.0506 53.3638 25.064 53.377 25.0773C53.3902 25.0862 53.4034 25.0996 53.4166 25.1085C53.4254 25.1174 53.4342 25.1307 53.4474 25.1441C53.4606 25.1619 53.4782 25.1797 53.4914 25.1975C53.4914 25.1975 53.4914 25.1975 53.4914 25.2019L54.0897 26.1274L54.6176 26.9417L57.2089 24.2453C57.4289 24.0184 57.7853 24.0139 58.0096 24.2319C58.234 24.4544 58.2384 24.8148 58.0228 25.0417L57.9876 25.0773L55.282 27.8894C55.282 27.8894 55.2644 27.9028 55.2556 27.9117L56.8702 30.4034C57.0418 30.6659 56.967 31.0219 56.7074 31.1954C56.6106 31.2577 56.505 31.2888 56.3994 31.2888C56.2762 31.2888 56.1531 31.2443 56.0563 31.1643C56.0079 31.1242 55.9639 31.0842 55.9287 31.0263L55.3392 30.1186L53.0382 26.5635L51.9604 28.2943L49.3031 32.548C49.1975 32.7216 49.0127 32.815 48.8235 32.815C48.7223 32.815 48.6168 32.7883 48.52 32.726C48.256 32.5569 48.1768 32.2054 48.344 31.934V31.9474Z" fill="white"/>
</g>
<defs>
<clipPath id="clip0_230_2859">
<rect width="168.002" height="46.9911" fill="white"/>
</clipPath>
</defs>
</svg>
