<?xml version="1.0" encoding="UTF-8"?>
<svg id="Capa_2" xmlns="http://www.w3.org/2000/svg" version="1.1" viewBox="0 0 272.76 105.63">
  <!-- Generator: Adobe Illustrator 30.1.0, SVG Export Plug-In . SVG Version: 2.1.1 Build 136)  -->
  <defs>
    <style>
      .st0 {
        fill: #211915;
      }
    </style>
  </defs>
  <path class="st0" d="M90.17,33.38L51.6,4.34c-1.15-.86-2.51-1.29-3.87-1.29s-2.72.43-3.87,1.29L5.29,33.38c-2.16,1.62-3.07,4.42-2.29,7l13.61,44.93c.51,1.68,1.68,3.07,3.24,3.87l24.96,12.71c.92.47,1.92.7,2.92.7s2-.23,2.92-.7l24.96-12.71c1.56-.8,2.73-2.19,3.24-3.87l13.61-44.93c.78-2.58-.13-5.38-2.29-7h0ZM44.51,94.52l-21.74-11.07-12.31-40.61,34.05,17.83v33.86h0ZM47.73,55.08L12,36.38,47.73,9.48l35.73,26.9-35.73,18.71ZM72.69,83.45l-21.74,11.07v-33.86l34.05-17.83-12.31,40.61h0Z"/>
  <path class="st0" d="M47.73,19.8c-8.32,0-15.09,6.77-15.09,15.09s6.77,15.09,15.09,15.09,15.09-6.77,15.09-15.09-6.77-15.09-15.09-15.09ZM47.73,46.12c-6.19,0-11.23-5.04-11.23-11.23s5.04-11.23,11.23-11.23,11.23,5.04,11.23,11.23-5.04,11.23-11.23,11.23Z"/>
  <path class="st0" d="M20.02,56.75l16.48,8.15-11.56,14.74c-.51.66-.4,1.61.26,2.12.27.21.59.32.93.32.47,0,.9-.21,1.19-.58l4.35-5.55,7.06,3.19c.2.09.41.13.62.13.59,0,1.14-.35,1.38-.89.17-.37.18-.78.04-1.16-.14-.38-.42-.68-.79-.85l-6.38-2.89,6.43-8.2c.06-.08.12-.17.17-.28.04-.09.07-.17.1-.26,0-.03.01-.07.02-.1l-.23-.03.24-.04s.02-.08.02-.12c0-.04,0-.08,0-.12h-.23s.23-.06.23-.06c0-.04,0-.07,0-.11,0-.04-.01-.07-.02-.11l-.22.06.21-.12s-.02-.08-.03-.11c-.01-.03-.03-.06-.04-.1l-.21.1.18-.15s-.03-.08-.05-.11-.04-.07-.07-.11l-.04-.05s-.04-.05-.06-.08c-.06-.07-.13-.13-.22-.21-.03-.02-.07-.05-.1-.07l-.06-.04s-.06-.04-.1-.06l-18.15-8.98c-.75-.37-1.66-.06-2.03.69-.37.75-.06,1.66.69,2.03h0Z"/>
  <path class="st0" d="M30.68,79.91c-.37.75-.06,1.66.69,2.03l9.34,4.63c.21.11.44.16.67.16.58,0,1.1-.32,1.36-.84.37-.75.06-1.66-.68-2.03l-9.34-4.63c-.75-.37-1.66-.06-2.03.69h0Z"/>
  <path class="st0" d="M29.88,67.14c.77-.31,1.15-1.19.84-1.97-.15-.38-.44-.67-.81-.83-.37-.16-.78-.16-1.16-.01l-4.76,1.92c-.38.15-.67.44-.83.81s-.16.78-.01,1.16c.23.58.78.95,1.4.95.19,0,.38-.04.56-.11l4.76-1.92Z"/>
  <path class="st0" d="M53.03,33.98c-1.51,0-2.73-1.22-2.73-2.73,0-.52.15-1.01.41-1.42-.87-.52-1.89-.82-2.98-.82-3.24,0-5.87,2.63-5.87,5.87s2.63,5.87,5.87,5.87,5.87-2.63,5.87-5.87c0-.33-.03-.64-.08-.95-.16.03-.32.05-.49.05h0Z"/>
  <path class="st0" d="M55.57,73.76c.24.15.52.23.81.23.52,0,1-.26,1.28-.71l8.3-13.14,6.38,9.73c.09.13.2.25.35.36.52.4,1.23.42,1.75.07.7-.46.89-1.4.44-2.1l-3.56-5.44,6.15-6.33c.58-.6.57-1.56-.03-2.14-.6-.58-1.56-.57-2.14.03l-5.68,5.85-2.42-3.68s-.07-.09-.1-.13l-.17.15.14-.19s-.04-.05-.06-.07c-.02-.02-.05-.05-.08-.07l-.14.18.09-.22s-.07-.06-.12-.09c-.03-.02-.05-.03-.11-.06-.04-.02-.09-.05-.13-.07-.04-.02-.08-.03-.17-.05-.04-.01-.07-.02-.11-.03-.04,0-.09-.01-.17-.02-.04,0-.07,0-.11,0-.05,0-.09,0-.18.01-.04,0-.08,0-.12.02-.04,0-.08.02-.11.03l.07.22-.12-.2s-.08.02-.11.04c-.05.02-.09.04-.13.07l.11.2-.15-.18s-.05.02-.09.05c-.04.03-.08.06-.12.1l.15.17-.19-.14s-.05.04-.07.06-.04.05-.06.07l.18.14-.22-.09s-.06.08-.1.13l-9.55,15.13c-.22.34-.29.75-.2,1.14.09.39.33.73.67.95h0Z"/>
  <path class="st0" d="M68.84,70.5c-.07-.4-.3-.74-.63-.97-.14-.1-.3-.17-.49-.22-.61-.16-1.26.09-1.62.6l-9.96,14.44c-.47.69-.3,1.63.39,2.11.25.18.55.27.86.27.5,0,.96-.24,1.25-.65l9.96-14.44c.23-.33.32-.74.24-1.13h0Z"/>
  <path class="st0" d="M72.29,74.17c-.18-.13-.39-.22-.62-.26-.58-.11-1.15.12-1.5.59l-4.5,6.13c-.49.67-.35,1.62.33,2.12.26.19.57.29.89.29.47,0,.91-.22,1.18-.58l4.53-6.17c.49-.67.35-1.62-.33-2.12h0Z"/>
  <path class="st0" d="M166.19,69.18h-.06c1.38-1.87,2.12-4.07,2.12-6.48,0-4.01-1.84-7.2-5.33-9.23-2.92-1.7-6.71-2.53-11.58-2.53h-10.27c-2.29,0-4.13,1.76-4.13,3.96v30.61c0,2.2,1.84,3.96,4.13,3.96h12.79c4.47,0,8.2-.99,11.13-2.91,3.33-2.2,5.05-5.5,5.05-9.51,0-2.97-1.32-5.66-3.84-7.86h0ZM146.69,59.94h4.64c3.9,0,5.62.72,6.31,1.1.63.39.86.72.86,1.59,0,1.04-.34,1.37-.75,1.59-.63.38-2.24,1.04-5.85,1.04h-5.22v-5.33h0ZM159.25,79.18c-1.2.82-2.98,1.21-5.39,1.21h-7.17v-6.04h7.4c2.35,0,4.13.38,5.16,1.15,1.09.77,1.09,1.32,1.09,1.59,0,.99-.29,1.59-1.09,2.09Z"/>
  <path class="st0" d="M193.26,50.49c-5.73,0-10.32,1.59-13.71,4.73-3.44,3.19-5.16,7.47-5.16,12.69v4.56c0,5.22,1.78,9.51,5.22,12.69,3.38,3.13,8.03,4.73,13.71,4.73s10.26-1.59,13.65-4.73c3.44-3.19,5.16-7.47,5.16-12.69v-4.56c0-5.22-1.72-9.51-5.22-12.69-3.38-3.13-7.97-4.73-13.65-4.73h0ZM202.44,72.47c0,2.75-.75,4.78-2.24,6.21-1.49,1.43-3.78,2.14-6.88,2.14s-5.45-.71-6.94-2.14c-1.49-1.48-2.24-3.52-2.24-6.21v-4.62c0-2.69.75-4.72,2.24-6.15,1.49-1.48,3.73-2.2,6.88-2.2s5.39.72,6.94,2.2c1.49,1.43,2.24,3.46,2.24,6.15v4.62h0Z"/>
  <path class="st0" d="M239.26,69.89l11.12-12.42c1.09-1.21,1.32-2.86.63-4.23-.63-1.43-2.12-2.31-3.73-2.31h-1.84c-1.2,0-2.35.5-3.1,1.37l-9.52,10.61-9.46-10.61c-.8-.88-1.95-1.37-3.15-1.37h-1.84c-1.61,0-3.04.88-3.73,2.31-.69,1.37-.46,3.08.63,4.23l11.18,12.42-11.7,13.02c-1.09,1.15-1.32,2.8-.63,4.23.63,1.43,2.12,2.31,3.73,2.31h1.78c1.2,0,2.35-.5,3.15-1.37l10.04-11.26,10.09,11.26c.75.88,1.89,1.37,3.1,1.37h1.84c1.61,0,3.04-.88,3.73-2.31.69-1.43.46-3.08-.63-4.23l-11.7-13.02h0Z"/>
  <path class="st0" d="M130.62,36.87c1.62-.58,2.7-1.22,3.39-2.02.33-.4.54-.92.54-1.47v-5.9c0-.86-.51-1.62-1.26-1.99-.75-.37-1.65-.24-2.31.31l-.75.64c-.48.43-.78,1.04-.78,1.68v3.76c-.18.09-.45.18-.75.31-.93.28-2.04.43-3.3.43-1.59,0-2.79-.43-3.69-1.28-.87-.89-1.26-1.93-1.26-3.36v-2.81c0-1.35.36-2.35,1.2-3.15.87-.83,2.01-1.25,3.51-1.25s2.7.27,3.39.83c.78.58,1.56.89,2.28.89,1.02,0,1.92-.64,2.22-1.62.27-.83.21-2.05-1.47-3.3-1.65-1.22-3.81-1.8-6.41-1.8-2.82,0-5.19.86-6.98,2.6-1.89,1.77-2.82,4.07-2.82,6.85v2.78c0,2.84.96,5.2,2.88,7,1.86,1.8,4.26,2.69,7.16,2.69,2.01,0,3.78-.28,5.22-.8h0Z"/>
  <path class="st0" d="M140.69,16.23h-.78c-1.2,0-2.16.98-2.16,2.2v17.03c0,1.22.96,2.2,2.16,2.2h11.27c1.17,0,2.16-.98,2.16-2.2v-.64c0-1.22-.99-2.2-2.16-2.2h-8.33v-14.19c0-1.22-.96-2.2-2.16-2.2h0Z"/>
  <path class="st0" d="M160.06,37.66c1.2,0,2.19-.98,2.19-2.2v-17.03c0-1.22-.99-2.2-2.19-2.2h-.75c-1.2,0-2.16.98-2.16,2.2v17.03c0,1.22.96,2.2,2.16,2.2h.75Z"/>
  <path class="st0" d="M175.65,37.66h.78c1.17,0,2.16-.98,2.16-2.2v-14.22h5.28c1.2,0,2.16-.98,2.16-2.2v-.61c0-1.22-.96-2.2-2.16-2.2h-15.65c-1.2,0-2.16.98-2.16,2.2v.61c0,1.22.96,2.2,2.16,2.2h5.28v14.22c0,1.22.96,2.2,2.16,2.2h0Z"/>
  <path class="st0" d="M195.53,22.22c.78-.83,1.86-1.25,3.27-1.25,1.5,0,2.64.31,3.42.86.78.58,1.53.86,2.25.86,1.05,0,1.98-.64,2.28-1.65.24-.83.18-2.08-1.56-3.3-1.65-1.19-3.81-1.77-6.38-1.77-2.82,0-5.16.89-6.92,2.69-1.74,1.8-2.64,4.16-2.64,7v2.54c0,2.84.9,5.17,2.67,6.97,1.74,1.8,4.08,2.72,6.89,2.72,2.58,0,4.71-.61,6.38-1.77.42-.31.75-.61.99-.89.87-1.04.69-2.02.57-2.42-.3-.98-1.2-1.62-2.25-1.62-.69,0-1.47.28-2.25.83-.78.55-1.95.83-3.45.83-1.41,0-2.49-.4-3.3-1.22-.78-.83-1.17-1.96-1.17-3.43v-2.57c0-1.47.39-2.57,1.2-3.39h0Z"/>
  <path class="st0" d="M212.98,16.23h-.75c-1.2,0-2.16.98-2.16,2.2v17.03c0,1.22.96,2.2,2.16,2.2h.75c1.2,0,2.19-.98,2.19-2.2v-5.93h8.72v5.93c0,1.22.96,2.2,2.16,2.2h.75c1.2,0,2.16-.98,2.16-2.2v-17.03c0-1.22-.96-2.2-2.16-2.2h-.75c-1.2,0-2.16.98-2.16,2.2v6.05h-8.72v-6.05c0-1.22-.99-2.2-2.19-2.2Z"/>
  <path class="st0" d="M248.08,21.24c1.2,0,2.16-.98,2.16-2.2v-.61c0-1.22-.96-2.2-2.16-2.2h-12.44c-1.2,0-2.16.98-2.16,2.2v17.03c0,1.22.96,2.2,2.16,2.2h12.44c1.2,0,2.16-.98,2.16-2.2v-.64c0-1.22-.96-2.2-2.16-2.2h-9.5v-3.52h8.06c1.2,0,2.16-.98,2.16-2.2v-.64c0-1.22-.96-2.2-2.16-2.2h-8.06v-2.81h9.5Z"/>
  <path class="st0" d="M269.55,18.82c-2.04-1.74-4.53-2.6-7.37-2.6h-5.66c-1.2,0-2.16.98-2.16,2.2v17.03c0,1.22.96,2.2,2.16,2.2h5.66c2.85,0,5.34-.89,7.37-2.63,2.1-1.8,3.21-4.25,3.21-7.06v-2.08c0-2.81-1.11-5.23-3.21-7.06h0ZM267.69,27.97c0,1.35-.48,2.35-1.5,3.24-1.08.95-2.4,1.41-4.02,1.41h-2.73v-11.38h2.73c1.62,0,2.94.49,4.02,1.44,1.02.89,1.5,1.9,1.5,3.18v2.11h0Z"/>
  <path class="st0" d="M267.22,42.06H123.15c-1.34,0-2.42,1.08-2.42,2.42s1.08,2.42,2.42,2.42h144.06c1.34,0,2.42-1.08,2.42-2.42s-1.08-2.42-2.42-2.42h0Z"/>
  <path class="st0" d="M193.38,65.48c-2.88,0-5.2,2.33-5.2,5.21s2.33,5.2,5.2,5.2,5.21-2.33,5.21-5.2-2.33-5.21-5.21-5.21Z"/>
</svg>